<svg width="20" height="20" viewBox="0 0 20 20" fill="none" xmlns="http://www.w3.org/2000/svg">
<path d="M10 19.082C14.9706 19.082 19 15.0526 19 10.082C19 5.11147 14.9706 1.08203 10 1.08203C5.02944 1.08203 1 5.11147 1 10.082C1 15.0526 5.02944 19.082 10 19.082Z" stroke="#229E6C" stroke-width="1.5" stroke-linecap="round" stroke-linejoin="round"/>
<path d="M6.625 9.33203C7.24632 9.33203 7.75 8.82835 7.75 8.20703C7.75 7.58571 7.24632 7.08203 6.625 7.08203C6.00368 7.08203 5.5 7.58571 5.5 8.20703C5.5 8.82835 6.00368 9.33203 6.625 9.33203Z" fill="#229E6C"/>
<path d="M13.375 9.33203C13.9963 9.33203 14.5 8.82835 14.5 8.20703C14.5 7.58571 13.9963 7.08203 13.375 7.08203C12.7537 7.08203 12.25 7.58571 12.25 8.20703C12.25 8.82835 12.7537 9.33203 13.375 9.33203Z" fill="#229E6C"/>
<path d="M13.8968 12.3318C13.5017 13.016 12.9334 13.5841 12.2492 13.9791C11.5649 14.3741 10.7888 14.582 9.99871 14.582C9.20864 14.582 8.43247 14.3741 7.74822 13.9791C7.06396 13.5841 6.49572 13.016 6.10059 12.3318" stroke="#229E6C" stroke-width="1.5" stroke-linecap="round" stroke-linejoin="round"/>
</svg>
