<svg width="131" height="26" viewBox="0 0 131 26" fill="none" xmlns="http://www.w3.org/2000/svg">
<path d="M6.372 17.874C6.768 17.874 7.146 17.865 7.506 17.847C7.866 17.829 8.154 17.802 8.37 17.766V14.715C8.208 14.679 7.965 14.643 7.641 14.607C7.317 14.571 7.02 14.553 6.75 14.553C6.372 14.553 6.012 14.58 5.67 14.634C5.346 14.67 5.058 14.751 4.806 14.877C4.554 15.003 4.356 15.174 4.212 15.39C4.068 15.606 3.996 15.876 3.996 16.2C3.996 16.83 4.203 17.271 4.617 17.523C5.049 17.757 5.634 17.874 6.372 17.874ZM6.048 6.102C7.236 6.102 8.226 6.237 9.018 6.507C9.81 6.777 10.44 7.164 10.908 7.668C11.394 8.172 11.736 8.784 11.934 9.504C12.132 10.224 12.231 11.025 12.231 11.907V20.277C11.655 20.403 10.854 20.547 9.828 20.709C8.802 20.889 7.56 20.979 6.102 20.979C5.184 20.979 4.347 20.898 3.591 20.736C2.853 20.574 2.214 20.313 1.674 19.953C1.134 19.575 0.72 19.089 0.432 18.495C0.144 17.901 0 17.172 0 16.308C0 15.48 0.162 14.778 0.486 14.202C0.828 13.626 1.278 13.167 1.836 12.825C2.394 12.483 3.033 12.24 3.753 12.096C4.473 11.934 5.22 11.853 5.994 11.853C6.516 11.853 6.975 11.88 7.371 11.934C7.785 11.97 8.118 12.024 8.37 12.096V11.718C8.37 11.034 8.163 10.485 7.749 10.071C7.335 9.657 6.615 9.45 5.589 9.45C4.905 9.45 4.23 9.504 3.564 9.612C2.898 9.702 2.322 9.837 1.836 10.017L1.323 6.777C1.557 6.705 1.845 6.633 2.187 6.561C2.547 6.471 2.934 6.399 3.348 6.345C3.762 6.273 4.194 6.219 4.644 6.183C5.112 6.129 5.58 6.102 6.048 6.102Z" fill="#1F92A1"/>
<path d="M18.5418 20.682H14.5188V6.48H18.5418V20.682ZM18.9198 2.376C18.9198 3.114 18.6768 3.699 18.1908 4.131C17.7228 4.545 17.1648 4.752 16.5168 4.752C15.8688 4.752 15.3018 4.545 14.8158 4.131C14.3478 3.699 14.1138 3.114 14.1138 2.376C14.1138 1.638 14.3478 1.062 14.8158 0.648C15.3018 0.216 15.8688 0 16.5168 0C17.1648 0 17.7228 0.216 18.1908 0.648C18.6768 1.062 18.9198 1.638 18.9198 2.376Z" fill="#1F92A1"/>
<path d="M29.5325 10.044C29.1725 9.954 28.7495 9.864 28.2635 9.774C27.7775 9.666 27.2555 9.612 26.6975 9.612C26.4455 9.612 26.1395 9.639 25.7795 9.693C25.4375 9.729 25.1765 9.774 24.9965 9.828V20.682H20.9735V7.236C21.6935 6.984 22.5395 6.75 23.5115 6.534C24.5015 6.3 25.5995 6.183 26.8055 6.183C27.0215 6.183 27.2825 6.201 27.5885 6.237C27.8945 6.255 28.2005 6.291 28.5065 6.345C28.8125 6.381 29.1185 6.435 29.4245 6.507C29.7305 6.561 29.9915 6.633 30.2075 6.723L29.5325 10.044Z" fill="#1F92A1"/>
<path d="M44.2981 13.554C44.2981 14.67 44.1361 15.696 43.8121 16.632C43.4881 17.55 43.0201 18.342 42.4081 19.008C41.7961 19.656 41.0581 20.16 40.1941 20.52C39.3481 20.88 38.3941 21.06 37.3321 21.06C36.2881 21.06 35.3341 20.88 34.4701 20.52C33.6241 20.16 32.8951 19.656 32.2831 19.008C31.6711 18.342 31.1941 17.55 30.8521 16.632C30.5101 15.696 30.3391 14.67 30.3391 13.554C30.3391 12.438 30.5101 11.421 30.8521 10.503C31.2121 9.585 31.6981 8.802 32.3101 8.154C32.9401 7.506 33.6781 7.002 34.5241 6.642C35.3881 6.282 36.3241 6.102 37.3321 6.102C38.3581 6.102 39.2941 6.282 40.1401 6.642C41.0041 7.002 41.7421 7.506 42.3541 8.154C42.9661 8.802 43.4431 9.585 43.7851 10.503C44.1271 11.421 44.2981 12.438 44.2981 13.554ZM40.1941 13.554C40.1941 12.312 39.9421 11.34 39.4381 10.638C38.9521 9.918 38.2501 9.558 37.3321 9.558C36.4141 9.558 35.7031 9.918 35.1991 10.638C34.6951 11.34 34.4431 12.312 34.4431 13.554C34.4431 14.796 34.6951 15.786 35.1991 16.524C35.7031 17.244 36.4141 17.604 37.3321 17.604C38.2501 17.604 38.9521 17.244 39.4381 16.524C39.9421 15.786 40.1941 14.796 40.1941 13.554Z" fill="#F8FEFF"/>
<path d="M46.0645 6.966C46.7485 6.768 47.6305 6.588 48.7105 6.426C49.7905 6.246 50.9245 6.156 52.1125 6.156C53.3185 6.156 54.3175 6.318 55.1095 6.642C55.9195 6.948 56.5585 7.389 57.0265 7.965C57.4945 8.541 57.8275 9.225 58.0255 10.017C58.2235 10.809 58.3225 11.691 58.3225 12.663V20.682H54.2995V13.149C54.2995 11.853 54.1285 10.935 53.7865 10.395C53.4445 9.855 52.8055 9.585 51.8695 9.585C51.5815 9.585 51.2755 9.603 50.9515 9.639C50.6275 9.657 50.3395 9.684 50.0875 9.72V20.682H46.0645V6.966Z" fill="#F6F9FA"/>
<path d="M59.9389 13.689C59.9389 12.429 60.1279 11.331 60.5059 10.395C60.9019 9.441 61.4149 8.649 62.0449 8.019C62.6749 7.389 63.3949 6.912 64.2049 6.588C65.0329 6.264 65.8789 6.102 66.7429 6.102C68.7589 6.102 70.3519 6.723 71.5219 7.965C72.6919 9.189 73.2769 10.998 73.2769 13.392C73.2769 13.626 73.2679 13.887 73.2499 14.175C73.2319 14.445 73.2139 14.688 73.1959 14.904H64.0699C64.1599 15.732 64.5469 16.389 65.2309 16.875C65.9149 17.361 66.8329 17.604 67.9849 17.604C68.7229 17.604 69.4429 17.541 70.1449 17.415C70.8649 17.271 71.4499 17.1 71.8999 16.902L72.4399 20.169C72.2239 20.277 71.9359 20.385 71.5759 20.493C71.2159 20.601 70.8109 20.691 70.3609 20.763C69.9289 20.853 69.4609 20.925 68.9569 20.979C68.4529 21.033 67.9489 21.06 67.4449 21.06C66.1669 21.06 65.0509 20.871 64.0969 20.493C63.1609 20.115 62.3779 19.602 61.7479 18.954C61.1359 18.288 60.6769 17.505 60.3709 16.605C60.0829 15.705 59.9389 14.733 59.9389 13.689ZM69.3889 12.15C69.3709 11.808 69.3079 11.475 69.1999 11.151C69.1099 10.827 68.9569 10.539 68.7409 10.287C68.5429 10.035 68.2819 9.828 67.9579 9.666C67.6519 9.504 67.2649 9.423 66.7969 9.423C66.3469 9.423 65.9599 9.504 65.6359 9.666C65.3119 9.81 65.0419 10.008 64.8259 10.26C64.6099 10.512 64.4389 10.809 64.3129 11.151C64.2049 11.475 64.1239 11.808 64.0699 12.15H69.3889Z" fill="#F6F9FA"/>
<path d="M84.1305 13.689C84.1305 12.447 83.8515 11.457 83.2935 10.719C82.7355 9.963 81.9075 9.585 80.8095 9.585C80.4495 9.585 80.1165 9.603 79.8105 9.639C79.5045 9.657 79.2525 9.684 79.0545 9.72V16.983C79.3065 17.145 79.6305 17.28 80.0265 17.388C80.4405 17.496 80.8545 17.55 81.2685 17.55C83.1765 17.55 84.1305 16.263 84.1305 13.689ZM88.2345 13.581C88.2345 14.679 88.0995 15.678 87.8295 16.578C87.5595 17.478 87.1635 18.252 86.6415 18.9C86.1195 19.548 85.4715 20.052 84.6975 20.412C83.9235 20.772 83.0325 20.952 82.0245 20.952C81.4665 20.952 80.9445 20.898 80.4585 20.79C79.9725 20.682 79.5045 20.529 79.0545 20.331V25.677H75.0315V6.966C75.3915 6.858 75.8055 6.759 76.2735 6.669C76.7415 6.561 77.2275 6.471 77.7315 6.399C78.2535 6.327 78.7755 6.273 79.2975 6.237C79.8375 6.183 80.3505 6.156 80.8365 6.156C82.0065 6.156 83.0505 6.336 83.9685 6.696C84.8865 7.038 85.6605 7.533 86.2905 8.181C86.9205 8.811 87.3975 9.585 87.7215 10.503C88.0635 11.421 88.2345 12.447 88.2345 13.581Z" fill="#F6F9FA"/>
<path d="M95.4035 17.874C95.7994 17.874 96.1775 17.865 96.5375 17.847C96.8975 17.829 97.1855 17.802 97.4015 17.766V14.715C97.2395 14.679 96.9964 14.643 96.6724 14.607C96.3484 14.571 96.0514 14.553 95.7814 14.553C95.4034 14.553 95.0434 14.58 94.7014 14.634C94.3774 14.67 94.0894 14.751 93.8374 14.877C93.5854 15.003 93.3874 15.174 93.2434 15.39C93.0994 15.606 93.0275 15.876 93.0275 16.2C93.0275 16.83 93.2344 17.271 93.6484 17.523C94.0804 17.757 94.6654 17.874 95.4035 17.874ZM95.0794 6.102C96.2674 6.102 97.2574 6.237 98.0494 6.507C98.8414 6.777 99.4714 7.164 99.9394 7.668C100.425 8.172 100.767 8.784 100.965 9.504C101.163 10.224 101.262 11.025 101.262 11.907V20.277C100.686 20.403 99.8855 20.547 98.8595 20.709C97.8335 20.889 96.5914 20.979 95.1334 20.979C94.2154 20.979 93.3785 20.898 92.6225 20.736C91.8845 20.574 91.2455 20.313 90.7055 19.953C90.1655 19.575 89.7514 19.089 89.4634 18.495C89.1754 17.901 89.0314 17.172 89.0314 16.308C89.0314 15.48 89.1934 14.778 89.5174 14.202C89.8594 13.626 90.3094 13.167 90.8674 12.825C91.4254 12.483 92.0644 12.24 92.7844 12.096C93.5044 11.934 94.2515 11.853 95.0255 11.853C95.5475 11.853 96.0065 11.88 96.4025 11.934C96.8165 11.97 97.1495 12.024 97.4015 12.096V11.718C97.4015 11.034 97.1944 10.485 96.7804 10.071C96.3664 9.657 95.6464 9.45 94.6204 9.45C93.9364 9.45 93.2615 9.504 92.5955 9.612C91.9295 9.702 91.3534 9.837 90.8674 10.017L90.3544 6.777C90.5884 6.705 90.8764 6.633 91.2184 6.561C91.5784 6.471 91.9654 6.399 92.3794 6.345C92.7934 6.273 93.2254 6.219 93.6754 6.183C94.1434 6.129 94.6114 6.102 95.0794 6.102Z" fill="#F6F9FA"/>
<path d="M106.979 13.122C106.979 15.372 107.888 16.497 109.706 16.497C110.12 16.497 110.507 16.443 110.867 16.335C111.227 16.227 111.533 16.101 111.785 15.957V9.531C111.587 9.495 111.353 9.468 111.083 9.45C110.813 9.414 110.498 9.396 110.138 9.396C109.076 9.396 108.284 9.747 107.762 10.449C107.24 11.151 106.979 12.042 106.979 13.122ZM115.808 18.9C115.808 21.222 115.214 22.941 114.026 24.057C112.856 25.191 111.038 25.758 108.572 25.758C107.708 25.758 106.844 25.677 105.98 25.515C105.116 25.371 104.315 25.173 103.577 24.921L104.279 21.546C104.909 21.798 105.566 21.996 106.25 22.14C106.952 22.284 107.744 22.356 108.626 22.356C109.778 22.356 110.588 22.104 111.056 21.6C111.542 21.096 111.785 20.448 111.785 19.656V19.143C111.353 19.341 110.903 19.494 110.435 19.602C109.985 19.692 109.49 19.737 108.95 19.737C106.988 19.737 105.485 19.161 104.441 18.009C103.397 16.839 102.875 15.21 102.875 13.122C102.875 12.078 103.037 11.133 103.361 10.287C103.685 9.423 104.153 8.685 104.765 8.073C105.395 7.461 106.16 6.993 107.06 6.669C107.96 6.327 108.977 6.156 110.111 6.156C110.597 6.156 111.092 6.183 111.596 6.237C112.118 6.273 112.631 6.327 113.135 6.399C113.639 6.471 114.116 6.561 114.566 6.669C115.034 6.759 115.448 6.858 115.808 6.966V18.9Z" fill="#F6F9FA"/>
<path d="M117.557 13.689C117.557 12.429 117.746 11.331 118.124 10.395C118.52 9.441 119.033 8.649 119.663 8.019C120.293 7.389 121.013 6.912 121.823 6.588C122.651 6.264 123.497 6.102 124.361 6.102C126.377 6.102 127.97 6.723 129.14 7.965C130.31 9.189 130.895 10.998 130.895 13.392C130.895 13.626 130.886 13.887 130.868 14.175C130.85 14.445 130.832 14.688 130.814 14.904H121.688C121.778 15.732 122.165 16.389 122.849 16.875C123.533 17.361 124.451 17.604 125.603 17.604C126.341 17.604 127.061 17.541 127.763 17.415C128.483 17.271 129.068 17.1 129.518 16.902L130.058 20.169C129.842 20.277 129.554 20.385 129.194 20.493C128.834 20.601 128.429 20.691 127.979 20.763C127.547 20.853 127.079 20.925 126.575 20.979C126.071 21.033 125.567 21.06 125.063 21.06C123.785 21.06 122.669 20.871 121.715 20.493C120.779 20.115 119.996 19.602 119.366 18.954C118.754 18.288 118.295 17.505 117.989 16.605C117.701 15.705 117.557 14.733 117.557 13.689ZM127.007 12.15C126.989 11.808 126.926 11.475 126.818 11.151C126.728 10.827 126.575 10.539 126.359 10.287C126.161 10.035 125.9 9.828 125.576 9.666C125.27 9.504 124.883 9.423 124.415 9.423C123.965 9.423 123.578 9.504 123.254 9.666C122.93 9.81 122.66 10.008 122.444 10.26C122.228 10.512 122.057 10.809 121.931 11.151C121.823 11.475 121.742 11.808 121.688 12.15H127.007Z" fill="#FAFEFF"/>
</svg>
